<svg width="40" height="41" viewBox="0 0 40 41" fill="none" xmlns="http://www.w3.org/2000/svg">
<rect y="0.5" width="40" height="40" rx="8" fill="#FFCC40"/>
<mask id="mask0_6_2106" style="mask-type:alpha" maskUnits="userSpaceOnUse" x="8" y="8" width="24" height="25">
<rect x="8" y="8.5" width="24" height="24" fill="#D9D9D9"/>
</mask>
<g mask="url(#mask0_6_2106)">
<path d="M11.2095 30C10.6 30 10.0793 29.7923 9.64747 29.3768C9.21582 28.9611 9 28.4599 9 27.8732V12.1268C9 11.5401 9.21582 11.0389 9.64747 10.6232C10.0793 10.2077 10.6 10 11.2095 10H27.5683C28.1778 10 28.6985 10.2077 29.1303 10.6232C29.562 11.0389 29.7778 11.5401 29.7778 12.1268V15.3282H27.9444V12.1268C27.9444 12.0211 27.9092 11.9343 27.8387 11.8665C27.7682 11.7986 27.6781 11.7647 27.5683 11.7647H11.2095C11.0997 11.7647 11.0095 11.7986 10.9391 11.8665C10.8686 11.9343 10.8333 12.0211 10.8333 12.1268V27.8732C10.8333 27.9789 10.8686 28.0657 10.9391 28.1335C11.0095 28.2014 11.0997 28.2353 11.2095 28.2353H27.5683C27.6781 28.2353 27.7682 28.2014 27.8387 28.1335C27.9092 28.0657 27.9444 27.9789 27.9444 27.8732V24.6718H29.7778V27.8732C29.7778 28.4599 29.562 28.9611 29.1303 29.3768C28.6985 29.7923 28.1778 30 27.5683 30H11.2095ZM20.9872 25.2941C20.3778 25.2941 19.8571 25.0864 19.4253 24.6709C18.9936 24.2552 18.7778 23.754 18.7778 23.1674V16.8326C18.7778 16.246 18.9936 15.7448 19.4253 15.3291C19.8571 14.9136 20.3778 14.7059 20.9872 14.7059H28.7905C29.4 14.7059 29.9207 14.9136 30.3525 15.3291C30.7842 15.7448 31 16.246 31 16.8326V23.1674C31 23.754 30.7842 24.2552 30.3525 24.6709C29.9207 25.0864 29.4 25.2941 28.7905 25.2941H20.9872ZM28.7905 23.5294C28.9003 23.5294 28.9905 23.4955 29.0609 23.4276C29.1314 23.3598 29.1667 23.273 29.1667 23.1674V16.8326C29.1667 16.727 29.1314 16.6402 29.0609 16.5724C28.9905 16.5045 28.9003 16.4706 28.7905 16.4706H20.9872C20.8775 16.4706 20.7873 16.5045 20.7168 16.5724C20.6464 16.6402 20.6111 16.727 20.6111 16.8326V23.1674C20.6111 23.273 20.6464 23.3598 20.7168 23.4276C20.7873 23.4955 20.8775 23.5294 20.9872 23.5294H28.7905ZM24.2778 21.7647C24.787 21.7647 25.2199 21.5931 25.5764 21.25C25.9329 20.9069 26.1111 20.4902 26.1111 20C26.1111 19.5098 25.9329 19.0931 25.5764 18.75C25.2199 18.4069 24.787 18.2353 24.2778 18.2353C23.7685 18.2353 23.3356 18.4069 22.9792 18.75C22.6227 19.0931 22.4444 19.5098 22.4444 20C22.4444 20.4902 22.6227 20.9069 22.9792 21.25C23.3356 21.5931 23.7685 21.7647 24.2778 21.7647Z" fill="white"/>
</g>
</svg>
