<svg width="396" height="312" viewBox="0 0 396 312" fill="none" xmlns="http://www.w3.org/2000/svg">
<path d="M396 259.361H0V259.559H396V259.361Z" fill="#EBEBEB"/>
<path d="M356.321 272.104H330.09V272.302H356.321V272.104Z" fill="#EBEBEB"/>
<path d="M262.326 274.258H255.444V274.456H262.326V274.258Z" fill="#EBEBEB"/>
<path d="M329.298 264.754H314.099V264.952H329.298V264.754Z" fill="#EBEBEB"/>
<path d="M75.7548 266.085H41.5483V266.283H75.7548V266.085Z" fill="#EBEBEB"/>
<path d="M87.8249 266.085H82.8115V266.283H87.8249V266.085Z" fill="#EBEBEB"/>
<path d="M178.319 269.427H104.124V269.625H178.319V269.427Z" fill="#EBEBEB"/>
<path d="M187.704 224.038H34.7766C33.5786 224.036 32.4304 223.558 31.584 222.71C30.7376 221.862 30.2622 220.713 30.2622 219.515V4.54278C30.2726 3.35163 30.7526 2.2127 31.5979 1.37337C32.4431 0.534037 33.5854 0.0620991 34.7766 0.0600586H187.704C188.903 0.0600586 190.054 0.536516 190.902 1.38462C191.75 2.23272 192.226 3.38298 192.226 4.58238V219.515C192.226 220.715 191.75 221.865 190.902 222.713C190.054 223.561 188.903 224.038 187.704 224.038ZM34.7766 0.218459C33.6311 0.220557 32.5332 0.677078 31.724 1.48782C30.9147 2.29856 30.4602 3.39727 30.4602 4.54278V219.515C30.4602 220.661 30.9147 221.76 31.724 222.57C32.5332 223.381 33.6311 223.838 34.7766 223.84H187.704C188.85 223.838 189.949 223.381 190.759 222.571C191.57 221.76 192.026 220.662 192.028 219.515V4.54278C192.026 3.39654 191.57 2.29785 190.759 1.48733C189.949 0.676821 188.85 0.220553 187.704 0.218459H34.7766Z" fill="#EBEBEB"/>
<path d="M359.021 224.038H206.086C204.888 224.036 203.738 223.558 202.891 222.711C202.043 221.863 201.566 220.714 201.564 219.515V4.54278C201.576 3.35091 202.058 2.21198 202.905 1.37287C203.751 0.533761 204.894 0.0620768 206.086 0.0600586H359.021C360.211 0.0641806 361.352 0.53704 362.195 1.37615C363.039 2.21525 363.518 3.353 363.528 4.54278V219.515C363.528 220.712 363.054 221.86 362.209 222.708C361.364 223.555 360.218 224.033 359.021 224.038ZM206.086 0.218459C204.94 0.220553 203.841 0.676821 203.031 1.48733C202.22 2.29785 201.764 3.39654 201.762 4.54278V219.515C201.764 220.662 202.22 221.76 203.031 222.571C203.841 223.381 204.94 223.838 206.086 223.84H359.021C360.168 223.838 361.266 223.381 362.077 222.571C362.887 221.76 363.344 220.662 363.346 219.515V4.54278C363.344 3.39654 362.887 2.29785 362.077 1.48733C361.266 0.676821 360.168 0.220553 359.021 0.218459H206.086Z" fill="#EBEBEB"/>
<path d="M306.362 56.688L313.49 61.9073C270.318 121.022 216.074 156.361 152.191 166.934C107.047 174.411 72.3494 166.253 66.9717 164.867V181.159C82.3898 184.422 98.1146 186.015 113.874 185.911C127.319 185.908 140.741 184.825 154.012 182.671C184.649 177.705 214.067 166.974 240.705 151.047C272.757 131.944 301.515 105.111 326.241 71.2845L333.258 76.4405L333.377 48.1265L306.362 56.688Z" fill="#E0E0E0"/>
<path d="M74.844 187.519H67.7397V258.886H74.844V187.519Z" fill="#EBEBEB"/>
<path d="M91.9827 190.687H84.8784V258.886H91.9827V190.687Z" fill="#EBEBEB"/>
<path d="M109.13 192.271H102.025V258.886H109.13V192.271Z" fill="#EBEBEB"/>
<path d="M126.269 192.271H119.165V258.886H126.269V192.271Z" fill="#EBEBEB"/>
<path d="M143.415 191.479H136.311V258.886H143.415V191.479Z" fill="#EBEBEB"/>
<path d="M160.554 189.103H153.45V258.886H160.554V189.103Z" fill="#EBEBEB"/>
<path d="M177.693 185.143H170.589V258.886H177.693V185.143Z" fill="#EBEBEB"/>
<path d="M194.84 181.183H187.736V258.886H194.84V181.183Z" fill="#EBEBEB"/>
<path d="M211.979 178.015H204.875V258.886H211.979V178.015Z" fill="#EBEBEB"/>
<path d="M229.126 167.663H222.021V258.894H229.126V167.663Z" fill="#EBEBEB"/>
<path d="M246.264 158.959H239.16V258.894H246.264V158.959Z" fill="#EBEBEB"/>
<path d="M263.411 149.043H256.307V258.886H263.411V149.043Z" fill="#EBEBEB"/>
<path d="M280.55 135.833H273.446V258.886H280.55V135.833Z" fill="#EBEBEB"/>
<path d="M297.697 122.044H290.593V258.886H297.697V122.044Z" fill="#EBEBEB"/>
<path d="M314.836 103.662H307.731V258.886H314.836V103.662Z" fill="#EBEBEB"/>
<path d="M331.983 83.6082H324.878V258.886H331.983V83.6082Z" fill="#EBEBEB"/>
<path d="M198 295.128C282.809 295.128 351.561 291.114 351.561 286.162C351.561 281.211 282.809 277.197 198 277.197C113.191 277.197 44.439 281.211 44.439 286.162C44.439 291.114 113.191 295.128 198 295.128Z" fill="#F5F5F5"/>
<path d="M314.82 170.649C299.606 208.438 277.96 243.305 250.842 273.704L201.786 243.251C228.906 212.85 250.554 177.98 265.771 140.188L314.82 170.649Z" fill="#407BFF"/>
<path opacity="0.4" d="M314.828 170.641C299.605 208.431 277.954 243.301 250.834 273.704L229.632 260.541L201.786 243.259C228.906 212.858 250.554 177.988 265.771 140.196C282.118 150.355 298.47 160.503 314.828 170.641Z" fill="white"/>
<path opacity="0.2" d="M273.842 148.806C273.496 149.732 272.945 150.568 272.229 151.25C271.513 151.932 270.652 152.443 269.711 152.744C268.769 153.046 267.771 153.129 266.792 152.989C265.814 152.848 264.88 152.488 264.06 151.934C250.636 182.487 232.943 210.979 211.511 236.559C212.371 237.047 213.109 237.725 213.669 238.539C214.229 239.354 214.596 240.285 214.744 241.263C214.892 242.24 214.816 243.239 214.523 244.183C214.229 245.127 213.724 245.992 213.048 246.713L243.627 265.721C245.085 264.104 247.055 263.036 249.206 262.698C251.357 262.359 253.559 262.769 255.443 263.859C276.876 238.277 294.569 209.781 307.993 179.226C306.18 178.021 304.837 176.229 304.187 174.152C303.537 172.075 303.619 169.837 304.421 167.814V167.75L273.85 148.742L273.842 148.806ZM275.259 218.304C270.555 225.867 260.298 227.99 252.767 223.317C245.235 218.644 243.263 208.918 247.959 201.355C252.656 193.791 262.286 191.273 269.826 195.953C277.366 200.634 279.98 210.732 275.259 218.304Z" fill="black"/>
<g opacity="0.2">
<path d="M269.779 212.878L271.798 214.13C271.497 214.629 271.188 215.128 270.88 215.619L268.868 214.375C267.826 215.95 266.324 217.167 264.567 217.86L263.261 215.92C264.718 215.368 265.987 214.412 266.92 213.163L263.3 210.914C261.558 212.625 259.53 214.359 257.02 212.799C255.174 211.651 254.43 209.33 255.927 206.336L253.883 205.069C254.192 204.57 254.501 204.079 254.802 203.58L256.814 204.824C257.668 203.557 258.821 202.521 260.172 201.806L261.542 203.691C260.463 204.285 259.517 205.094 258.762 206.067L262.413 208.34C264.156 206.622 266.112 204.8 268.622 206.36C270.468 207.469 271.244 209.837 269.779 212.878ZM261.114 209.56L257.891 207.564C257.289 208.974 257.598 209.94 258.39 210.407C259.182 210.875 260.148 210.423 261.114 209.56ZM267.371 208.768C266.484 208.221 265.581 208.768 264.607 209.663L267.775 211.651C268.424 210.201 268.147 209.251 267.371 208.768Z" fill="black"/>
</g>
<path opacity="0.2" d="M314.828 170.641C299.605 208.431 277.954 243.301 250.834 273.704L229.632 260.541L212.802 232.116C212.802 232.116 279.924 204.301 314.828 170.641Z" fill="black"/>
<path d="M351.252 223.721C319.996 249.859 284.448 270.385 246.185 284.388C236.57 267.719 226.95 251.05 217.325 234.381C255.586 220.389 291.134 199.874 322.391 173.746C332.017 190.399 341.637 207.057 351.252 223.721Z" fill="#407BFF"/>
<path opacity="0.4" d="M351.252 223.721C319.996 249.859 284.448 270.385 246.185 284.388C236.57 267.719 226.95 251.05 217.325 234.381C255.586 220.389 291.134 199.874 322.391 173.746C332.017 190.399 341.637 207.057 351.252 223.721Z" fill="white"/>
<path opacity="0.2" d="M325.44 185.119C324.698 185.772 323.818 186.248 322.865 186.511C321.912 186.774 320.912 186.818 319.94 186.639C318.967 186.46 318.049 186.062 317.252 185.477C316.456 184.891 315.803 184.132 315.342 183.257C289.068 203.855 260.002 220.617 229.014 233.042C229.541 233.879 229.87 234.823 229.979 235.805C230.088 236.787 229.972 237.78 229.641 238.711C229.31 239.642 228.773 240.486 228.069 241.179C227.365 241.872 226.513 242.396 225.577 242.713L243.563 273.878C245.615 273.143 247.856 273.136 249.912 273.857C251.968 274.578 253.714 275.983 254.857 277.838C285.845 265.413 314.911 248.651 341.185 228.053C340.149 226.131 339.807 223.911 340.215 221.766C340.623 219.622 341.757 217.683 343.427 216.276L343.482 216.228L325.512 185.079L325.44 185.119ZM293.871 247.053C286.149 251.496 276.115 248.526 271.695 240.844C267.276 233.161 270.111 223.665 277.833 219.222C285.555 214.779 295.257 217.099 299.653 224.766C304.049 232.433 301.601 242.618 293.871 247.053Z" fill="black"/>
<g opacity="0.2">
<path d="M291.599 239.68C292.002 240.361 292.391 241.05 292.794 241.739L291.274 242.618L290.094 240.567C288.43 241.464 286.531 241.829 284.653 241.612C284.574 240.82 284.502 240.028 284.423 239.284C285.967 239.488 287.537 239.243 288.945 238.579L286.823 234.896C284.447 235.577 281.873 236.147 280.392 233.589C279.307 231.704 279.75 229.304 282.483 227.372C282.079 226.675 281.691 225.986 281.279 225.289L282.791 224.41L283.972 226.461C285.323 225.746 286.83 225.376 288.359 225.384C288.47 226.176 288.573 226.92 288.684 227.689C287.457 227.706 286.246 227.975 285.128 228.481C285.841 229.727 286.556 230.968 287.274 232.203C289.611 231.514 292.2 230.833 293.681 233.391C294.767 235.236 294.331 237.66 291.599 239.68ZM285.532 232.662L283.639 229.384C282.443 230.342 282.261 231.316 282.736 232.124C283.211 232.932 284.28 232.963 285.532 232.662ZM291.424 234.92C290.902 234.017 289.84 234.072 288.557 234.405C289.191 235.49 289.817 236.583 290.442 237.668C291.678 236.678 291.884 235.712 291.456 234.92H291.424Z" fill="black"/>
</g>
<path d="M302.568 284.356H333.479V278.29H302.568V284.356Z" fill="#407BFF"/>
<path opacity="0.2" d="M302.568 284.356H309.379V278.29H302.568V284.356Z" fill="black"/>
<path opacity="0.2" d="M312.65 278.282H310.171V284.348H312.65V278.282Z" fill="black"/>
<path opacity="0.2" d="M315.826 278.282H314.131V284.348H315.826V278.282Z" fill="black"/>
<path opacity="0.2" d="M318.938 278.282H318.091V284.348H318.938V278.282Z" fill="black"/>
<path opacity="0.2" d="M324.062 278.282H323.635V284.348H324.062V278.282Z" fill="black"/>
<path d="M304.025 278.321H334.937V272.255H304.025V278.321Z" fill="#407BFF"/>
<path opacity="0.2" d="M304.025 278.321H310.836V272.255H304.025V278.321Z" fill="black"/>
<path opacity="0.2" d="M314.107 272.247H311.628V278.313H314.107V272.247Z" fill="black"/>
<path opacity="0.2" d="M317.283 272.247H315.588V278.313H317.283V272.247Z" fill="black"/>
<path opacity="0.2" d="M320.396 272.247H319.548V278.313H320.396V272.247Z" fill="black"/>
<path opacity="0.2" d="M325.52 272.247H325.092V278.313H325.52V272.247Z" fill="black"/>
<path d="M301.269 272.286H332.181V266.22H301.269V272.286Z" fill="#407BFF"/>
<path opacity="0.2" d="M301.269 272.286H308.08V266.22H301.269V272.286Z" fill="black"/>
<path opacity="0.2" d="M311.343 266.212H308.864V272.278H311.343V266.212Z" fill="black"/>
<path opacity="0.2" d="M314.519 266.212H312.824V272.278H314.519V266.212Z" fill="black"/>
<path opacity="0.2" d="M317.632 266.212H316.784V272.278H317.632V266.212Z" fill="black"/>
<path opacity="0.2" d="M322.756 266.212H322.328V272.278H322.756V266.212Z" fill="black"/>
<path d="M302.568 266.251H333.479V260.184H302.568V266.251Z" fill="#407BFF"/>
<path opacity="0.2" d="M302.568 266.251H309.379V260.184H302.568V266.251Z" fill="black"/>
<path opacity="0.2" d="M312.65 260.177H310.171V266.243H312.65V260.177Z" fill="black"/>
<path opacity="0.2" d="M315.826 260.177H314.131V266.243H315.826V260.177Z" fill="black"/>
<path opacity="0.2" d="M318.938 260.177H318.091V266.243H318.938V260.177Z" fill="black"/>
<path opacity="0.2" d="M324.062 260.177H323.635V266.243H324.062V260.177Z" fill="black"/>
<path d="M303.352 260.216H334.264V254.149H303.352V260.216Z" fill="#407BFF"/>
<path opacity="0.2" d="M303.352 260.216H310.163V254.149H303.352V260.216Z" fill="black"/>
<path opacity="0.2" d="M313.442 254.141H310.963V260.208H313.442V254.141Z" fill="black"/>
<path opacity="0.2" d="M316.618 254.141H314.923V260.208H316.618V254.141Z" fill="black"/>
<path opacity="0.2" d="M319.73 254.141H318.883V260.208H319.73V254.141Z" fill="black"/>
<path opacity="0.2" d="M324.854 254.141H324.427V260.208H324.854V254.141Z" fill="black"/>
<path d="M302.56 254.181H333.472V248.114H302.56V254.181Z" fill="#407BFF"/>
<path opacity="0.2" d="M302.56 254.181H309.371V248.114H302.56V254.181Z" fill="black"/>
<path opacity="0.2" d="M312.65 248.106H310.171V254.173H312.65V248.106Z" fill="black"/>
<path opacity="0.2" d="M315.826 248.106H314.131V254.173H315.826V248.106Z" fill="black"/>
<path opacity="0.2" d="M318.938 248.106H318.091V254.173H318.938V248.106Z" fill="black"/>
<path opacity="0.2" d="M324.062 248.106H323.635V254.173H324.062V248.106Z" fill="black"/>
<path d="M302.56 248.146H333.472V242.079H302.56V248.146Z" fill="#407BFF"/>
<path opacity="0.2" d="M302.56 248.146H309.371V242.079H302.56V248.146Z" fill="black"/>
<path opacity="0.2" d="M312.65 242.071H310.171V248.138H312.65V242.071Z" fill="black"/>
<path opacity="0.2" d="M315.826 242.071H314.131V248.138H315.826V242.071Z" fill="black"/>
<path opacity="0.2" d="M318.938 242.071H318.091V248.138H318.938V242.071Z" fill="black"/>
<path opacity="0.2" d="M324.062 242.071H323.635V248.138H324.062V242.071Z" fill="black"/>
<path d="M304.144 242.111H335.056V236.044H304.144V242.111Z" fill="#407BFF"/>
<path opacity="0.2" d="M304.144 242.111H310.955V236.044H304.144V242.111Z" fill="black"/>
<path opacity="0.2" d="M314.234 236.036H311.755V242.103H314.234V236.036Z" fill="black"/>
<path opacity="0.2" d="M317.41 236.036H315.715V242.103H317.41V236.036Z" fill="black"/>
<path opacity="0.2" d="M320.522 236.036H319.675V242.103H320.522V236.036Z" fill="black"/>
<path opacity="0.2" d="M325.646 236.036H325.219V242.103H325.646V236.036Z" fill="black"/>
<path d="M302.56 236.076H333.472V230.009H302.56V236.076Z" fill="#407BFF"/>
<path opacity="0.2" d="M302.56 236.076H309.371V230.009H302.56V236.076Z" fill="black"/>
<path opacity="0.2" d="M312.65 230.001H310.171V236.068H312.65V230.001Z" fill="black"/>
<path opacity="0.2" d="M315.826 230.001H314.131V236.068H315.826V230.001Z" fill="black"/>
<path opacity="0.2" d="M318.938 230.001H318.091V236.068H318.938V230.001Z" fill="black"/>
<path opacity="0.2" d="M324.062 230.001H323.635V236.068H324.062V230.001Z" fill="black"/>
<path d="M300.976 230.041H331.888V223.974H300.976V230.041Z" fill="#407BFF"/>
<path opacity="0.2" d="M300.976 230.041H307.787V223.974H300.976V230.041Z" fill="black"/>
<path opacity="0.2" d="M311.066 223.966H308.587V230.033H311.066V223.966Z" fill="black"/>
<path opacity="0.2" d="M314.242 223.966H312.547V230.033H314.242V223.966Z" fill="black"/>
<path opacity="0.2" d="M317.354 223.966H316.507V230.033H317.354V223.966Z" fill="black"/>
<path opacity="0.2" d="M322.478 223.966H322.051V230.033H322.478V223.966Z" fill="black"/>
<path d="M275.307 284.356H306.219V278.29H275.307V284.356Z" fill="#407BFF"/>
<path opacity="0.2" d="M275.307 284.356H282.118V278.29H275.307V284.356Z" fill="black"/>
<path opacity="0.2" d="M285.381 278.282H282.902V284.348H285.381V278.282Z" fill="black"/>
<path opacity="0.2" d="M288.557 278.282H286.862V284.348H288.557V278.282Z" fill="black"/>
<path opacity="0.2" d="M291.67 278.282H290.822V284.348H291.67V278.282Z" fill="black"/>
<path opacity="0.2" d="M296.794 278.282H296.366V284.348H296.794V278.282Z" fill="black"/>
<path d="M276.891 278.321H307.803V272.255H276.891V278.321Z" fill="#407BFF"/>
<path opacity="0.2" d="M276.891 278.321H283.702V272.255H276.891V278.321Z" fill="black"/>
<path opacity="0.2" d="M286.965 272.247H284.486V278.313H286.965V272.247Z" fill="black"/>
<path opacity="0.2" d="M290.141 272.247H288.446V278.313H290.141V272.247Z" fill="black"/>
<path opacity="0.2" d="M293.254 272.247H292.406V278.313H293.254V272.247Z" fill="black"/>
<path opacity="0.2" d="M298.378 272.247H297.95V278.313H298.378V272.247Z" fill="black"/>
<path d="M275.307 272.286H306.219V266.22H275.307V272.286Z" fill="#407BFF"/>
<path opacity="0.2" d="M275.307 272.286H282.118V266.22H275.307V272.286Z" fill="black"/>
<path opacity="0.2" d="M285.381 266.212H282.902V272.278H285.381V266.212Z" fill="black"/>
<path opacity="0.2" d="M288.557 266.212H286.862V272.278H288.557V266.212Z" fill="black"/>
<path opacity="0.2" d="M291.67 266.212H290.822V272.278H291.67V266.212Z" fill="black"/>
<path opacity="0.2" d="M296.794 266.212H296.366V272.278H296.794V266.212Z" fill="black"/>
<path d="M276.099 266.251H307.011V260.184H276.099V266.251Z" fill="#407BFF"/>
<path opacity="0.2" d="M276.099 266.251H282.91V260.184H276.099V266.251Z" fill="black"/>
<path opacity="0.2" d="M286.173 260.177H283.694V266.243H286.173V260.177Z" fill="black"/>
<path opacity="0.2" d="M289.349 260.177H287.654V266.243H289.349V260.177Z" fill="black"/>
<path opacity="0.2" d="M292.462 260.177H291.614V266.243H292.462V260.177Z" fill="black"/>
<path opacity="0.2" d="M297.586 260.177H297.158V266.243H297.586V260.177Z" fill="black"/>
<path d="M275.307 260.216H306.219V254.149H275.307V260.216Z" fill="#407BFF"/>
<path opacity="0.2" d="M275.307 260.216H282.118V254.149H275.307V260.216Z" fill="black"/>
<path opacity="0.2" d="M285.389 254.141H282.91V260.208H285.389V254.141Z" fill="black"/>
<path opacity="0.2" d="M288.565 254.141H286.87V260.208H288.565V254.141Z" fill="black"/>
<path opacity="0.2" d="M291.678 254.141H290.831V260.208H291.678V254.141Z" fill="black"/>
<path opacity="0.2" d="M296.802 254.141H296.375V260.208H296.802V254.141Z" fill="black"/>
<path d="M277.683 254.181H308.595V248.114H277.683V254.181Z" fill="#407BFF"/>
<path opacity="0.2" d="M277.683 254.181H284.494V248.114H277.683V254.181Z" fill="black"/>
<path opacity="0.2" d="M287.765 248.106H285.286V254.173H287.765V248.106Z" fill="black"/>
<path opacity="0.2" d="M290.941 248.106H289.247V254.173H290.941V248.106Z" fill="black"/>
<path opacity="0.2" d="M294.054 248.106H293.207V254.173H294.054V248.106Z" fill="black"/>
<path opacity="0.2" d="M299.178 248.106H298.75V254.173H299.178V248.106Z" fill="black"/>
<path d="M254.873 33.72H139.487C134.938 33.72 131.25 37.4077 131.25 41.9568V276.119C131.25 280.669 134.938 284.356 139.487 284.356H254.873C259.422 284.356 263.11 280.669 263.11 276.119V41.9568C263.11 37.4077 259.422 33.72 254.873 33.72Z" fill="#263238"/>
<path d="M258.707 41.6637V275.985C258.707 276.413 258.622 276.837 258.456 277.231C258.291 277.626 258.048 277.984 257.743 278.284C257.438 278.584 257.076 278.82 256.678 278.979C256.281 279.138 255.856 279.216 255.428 279.208H138.671C138.283 279.214 137.897 279.141 137.537 278.993C137.177 278.846 136.851 278.627 136.578 278.35C136.305 278.074 136.091 277.745 135.949 277.383C135.806 277.021 135.738 276.635 135.749 276.246V41.3944C135.735 41.0522 135.789 40.7106 135.907 40.3892C136.025 40.0677 136.206 39.7728 136.438 39.5212C136.671 39.2696 136.951 39.0664 137.262 38.923C137.573 38.7797 137.909 38.699 138.251 38.6858H167.445C167.853 38.6933 168.249 38.8224 168.584 39.0566C168.918 39.2908 169.175 39.6195 169.322 40.0005L170.533 42.9784C170.682 43.3565 170.94 43.6818 171.275 43.9131C171.609 44.1443 172.004 44.2711 172.41 44.2773H222.108C222.513 44.2745 222.908 44.1509 223.243 43.9223C223.577 43.6937 223.836 43.3706 223.985 42.9943L225.197 40.0084C225.342 39.6259 225.599 39.2956 225.933 39.0599C226.268 38.8242 226.665 38.6939 227.074 38.6858H255.816C256.593 38.7004 257.333 39.0216 257.875 39.5794C258.416 40.1372 258.715 40.8864 258.707 41.6637Z" fill="#407BFF"/>
<path opacity="0.7" d="M258.707 48.4434H135.741V269.538H258.707V48.4434Z" fill="white"/>
<path opacity="0.6" d="M194.444 40.6659C195.375 40.6659 196.131 39.9106 196.131 38.979C196.131 38.0473 195.375 37.292 194.444 37.292C193.512 37.292 192.757 38.0473 192.757 38.979C192.757 39.9106 193.512 40.6659 194.444 40.6659Z" fill="white"/>
<path opacity="0.6" d="M199.584 38.9789C199.584 39.1938 199.52 39.4039 199.4 39.5825C199.281 39.7611 199.111 39.9002 198.912 39.9821C198.713 40.0639 198.495 40.085 198.284 40.0424C198.073 39.9999 197.88 39.8958 197.729 39.7433C197.577 39.5907 197.474 39.3967 197.433 39.1857C197.392 38.9747 197.415 38.7562 197.498 38.5581C197.582 38.36 197.722 38.1911 197.902 38.0728C198.081 37.9546 198.292 37.8923 198.507 37.8938C198.649 37.8938 198.789 37.9219 198.921 37.9766C199.052 38.0312 199.171 38.1112 199.271 38.2121C199.371 38.313 199.45 38.4326 199.504 38.5642C199.558 38.6958 199.585 38.8368 199.584 38.9789Z" fill="white"/>
<path opacity="0.6" d="M149.609 45.2119H151.129V43.1844H149.609V45.2119Z" fill="white"/>
<path opacity="0.6" d="M147.138 45.2119H148.658V42.5112H147.138V45.2119Z" fill="white"/>
<path opacity="0.6" d="M144.659 45.2039H146.179V41.8299H144.659V45.2039Z" fill="white"/>
<path opacity="0.6" d="M142.187 45.2119H143.708V41.1569H142.187V45.2119Z" fill="white"/>
<path opacity="0.6" d="M245.116 42.4478H244.213V44.4753H245.116V42.4478Z" fill="white"/>
<path opacity="0.6" d="M245.726 45.2039H252.901V41.7032H245.726V45.2039Z" fill="white"/>
<path d="M258.77 48.467H135.59V68.4254H258.77V48.467Z" fill="#263238"/>
<g opacity="0.7">
<path d="M182.492 55.5553V57.5829H185.708V58.6204H182.492V61.1706H181.257V54.5178H186.12V55.5553H182.492Z" fill="white"/>
<path d="M186.912 54.5495C186.913 54.4496 186.936 54.3511 186.977 54.2602C187.019 54.1693 187.078 54.0879 187.153 54.021C187.227 53.9542 187.314 53.9033 187.409 53.8716C187.504 53.8399 187.604 53.828 187.704 53.8367C187.801 53.8245 187.9 53.8329 187.995 53.8613C188.089 53.8898 188.176 53.9376 188.251 54.0017C188.325 54.0659 188.386 54.145 188.428 54.2339C188.47 54.3228 188.493 54.4195 188.496 54.5179C188.448 54.6824 188.348 54.8269 188.211 54.9297C188.073 55.0325 187.907 55.0881 187.735 55.0881C187.564 55.0881 187.397 55.0325 187.26 54.9297C187.123 54.8269 187.023 54.6824 186.975 54.5179L186.912 54.5495ZM187.07 56.1335H188.258V61.2103H187.07V56.1335Z" fill="white"/>
<path d="M194.832 58.2641V61.1708H193.644V58.4146C193.644 57.5117 193.2 57.0761 192.44 57.0761C192.241 57.0637 192.041 57.0956 191.856 57.1697C191.671 57.2437 191.504 57.358 191.368 57.5043C191.233 57.6506 191.131 57.8252 191.071 58.0155C191.011 58.2058 190.995 58.407 191.022 58.6047V61.1708H189.834V56.094H190.967V56.7514C191.186 56.5107 191.456 56.3219 191.757 56.1986C192.059 56.0753 192.384 56.0207 192.709 56.0386C193.002 56.0165 193.297 56.0597 193.572 56.1653C193.846 56.2708 194.094 56.436 194.297 56.6489C194.5 56.8618 194.653 57.1171 194.746 57.3964C194.838 57.6758 194.868 57.9721 194.832 58.2641Z" fill="white"/>
<path d="M200.605 58.2006V61.1706H199.488V60.5528C199.302 60.7895 199.06 60.9757 198.783 61.0947C198.506 61.2136 198.204 61.2615 197.904 61.234C196.748 61.234 196.02 60.6004 196.02 59.7133C196.02 58.8263 196.582 58.2085 198.126 58.2085H199.433V58.1293C199.433 57.4403 199.021 57.0284 198.174 57.0284C197.617 57.0215 197.074 57.1998 196.629 57.5353L196.17 56.6641C196.801 56.2333 197.553 56.0142 198.316 56.0384C199.758 56.0384 200.605 56.7354 200.605 58.2006ZM199.417 59.5866V58.9926H198.198C197.406 58.9926 197.168 59.3015 197.168 59.6658C197.168 60.0301 197.532 60.3707 198.134 60.3707C198.403 60.3916 198.672 60.3271 198.903 60.1863C199.133 60.0455 199.313 59.8357 199.417 59.5866Z" fill="white"/>
<path d="M207.124 58.264V61.1706H205.92V58.4145C205.92 57.5116 205.476 57.076 204.716 57.076C204.517 57.0635 204.318 57.0955 204.132 57.1696C203.947 57.2436 203.78 57.3579 203.645 57.5042C203.509 57.6505 203.408 57.8251 203.348 58.0154C203.288 58.2057 203.271 58.4069 203.298 58.6046V61.1706H202.11V56.0939H203.243V56.7513C203.463 56.51 203.735 56.3208 204.038 56.1975C204.34 56.0742 204.667 56.0199 204.993 56.0385C205.287 56.0151 205.583 56.0574 205.858 56.1624C206.134 56.2674 206.383 56.4324 206.587 56.6455C206.791 56.8585 206.945 57.1143 207.038 57.3942C207.13 57.6742 207.16 57.9713 207.124 58.264Z" fill="white"/>
<path d="M208.296 58.6679C208.29 58.3131 208.359 57.9611 208.497 57.634C208.634 57.307 208.839 57.0121 209.096 56.768C209.354 56.5239 209.659 56.3358 209.993 56.2157C210.327 56.0956 210.682 56.046 211.036 56.0702C211.473 56.0387 211.909 56.1332 212.294 56.3423C212.679 56.5515 212.995 56.8666 213.206 57.2502L212.295 57.7809C212.165 57.5624 211.979 57.3823 211.756 57.2586C211.534 57.1348 211.283 57.0719 211.028 57.076C210.608 57.076 210.205 57.2429 209.908 57.5399C209.611 57.837 209.444 58.2399 209.444 58.66C209.444 59.0801 209.611 59.483 209.908 59.7801C210.205 60.0771 210.608 60.244 211.028 60.244C211.283 60.2481 211.534 60.1852 211.756 60.0614C211.979 59.9377 212.165 59.7575 212.295 59.5391L213.206 60.0698C212.994 60.4529 212.677 60.768 212.293 60.9783C211.909 61.1886 211.473 61.2855 211.036 61.2578C210.683 61.2818 210.328 61.2325 209.995 61.1128C209.661 60.9932 209.356 60.8059 209.099 60.5626C208.842 60.3193 208.637 60.0254 208.499 59.6993C208.361 59.3732 208.292 59.0221 208.296 58.6679Z" fill="white"/>
<path d="M218.885 59.0164H214.925C215.003 59.3853 215.214 59.7127 215.518 59.9361C215.821 60.1596 216.197 60.2635 216.572 60.2281C216.827 60.2373 217.081 60.1934 217.319 60.0994C217.556 60.0053 217.771 59.8631 217.95 59.6816L218.584 60.4103C218.199 60.7914 217.714 61.0551 217.185 61.1706C216.656 61.2861 216.105 61.2486 215.597 61.0625C215.089 60.8764 214.644 60.5494 214.314 60.1198C213.985 59.6901 213.785 59.1755 213.737 58.6362C213.727 58.2903 213.788 57.9461 213.917 57.6248C214.045 57.3035 214.238 57.0121 214.484 56.7685C214.73 56.5249 215.023 56.3345 215.345 56.2089C215.668 56.0833 216.013 56.0253 216.358 56.0384C216.704 56.0257 217.048 56.0853 217.368 56.2133C217.689 56.3412 217.98 56.5349 218.221 56.7817C218.463 57.0285 218.65 57.3231 218.771 57.6465C218.892 57.97 218.945 58.3152 218.925 58.66C218.901 58.755 218.893 58.8976 218.885 59.0164ZM214.925 58.2244H217.8C217.764 57.8743 217.595 57.5514 217.329 57.3216C217.062 57.0919 216.718 56.9728 216.366 56.9888C216.01 56.9682 215.658 57.0846 215.385 57.3143C215.111 57.5439 214.935 57.8695 214.893 58.2244H214.925Z" fill="white"/>
</g>
<g opacity="0.7">
<path d="M143.946 62.1527C143.738 62.1519 143.539 62.0694 143.391 61.9231L140.413 58.9531C140.339 58.8794 140.28 58.7918 140.24 58.6953C140.2 58.5988 140.179 58.4953 140.179 58.3907C140.179 58.2862 140.2 58.1827 140.24 58.0862C140.28 57.9896 140.339 57.902 140.413 57.8284L143.391 54.8584C143.543 54.7287 143.738 54.6609 143.937 54.6686C144.136 54.6763 144.326 54.7589 144.467 54.8999C144.608 55.041 144.69 55.2301 144.698 55.4294C144.706 55.6287 144.638 55.8236 144.508 55.9751L142.093 58.3907L144.508 60.7667C144.656 60.9151 144.738 61.1159 144.738 61.3251C144.738 61.5343 144.656 61.7351 144.508 61.8835C144.437 61.964 144.351 62.0295 144.255 62.0758C144.158 62.122 144.053 62.1482 143.946 62.1527Z" fill="white"/>
</g>
<g opacity="0.7">
<path d="M254.184 55.5C254.184 55.6786 254.131 55.8532 254.032 56.0017C253.933 56.1501 253.792 56.2659 253.627 56.3342C253.462 56.4025 253.28 56.4204 253.105 56.3856C252.93 56.3507 252.769 56.2647 252.643 56.1385C252.517 56.0122 252.431 55.8513 252.396 55.6762C252.361 55.5011 252.379 55.3195 252.447 55.1545C252.515 54.9896 252.631 54.8485 252.78 54.7493C252.928 54.6501 253.103 54.5972 253.281 54.5972C253.521 54.5972 253.75 54.6923 253.92 54.8616C254.089 55.0309 254.184 55.2606 254.184 55.5Z" fill="white"/>
<path d="M254.184 58.3909C254.184 58.5695 254.131 58.7441 254.032 58.8925C253.933 59.041 253.792 59.1567 253.627 59.2251C253.462 59.2934 253.28 59.3113 253.105 59.2764C252.93 59.2416 252.769 59.1556 252.643 59.0293C252.517 58.9031 252.431 58.7422 252.396 58.5671C252.361 58.3919 252.379 58.2104 252.447 58.0454C252.515 57.8804 252.631 57.7394 252.78 57.6402C252.928 57.541 253.103 57.488 253.281 57.488C253.521 57.488 253.75 57.5832 253.92 57.7525C254.089 57.9218 254.184 58.1515 254.184 58.3909Z" fill="white"/>
<path d="M254.184 61.2896C254.184 61.4682 254.131 61.6427 254.032 61.7912C253.933 61.9397 253.792 62.0554 253.627 62.1238C253.462 62.1921 253.28 62.21 253.105 62.1751C252.93 62.1403 252.769 62.0543 252.643 61.928C252.517 61.8018 252.431 61.6409 252.396 61.4657C252.361 61.2906 252.379 61.1091 252.447 60.9441C252.515 60.7791 252.631 60.6381 252.78 60.5389C252.928 60.4397 253.103 60.3867 253.281 60.3867C253.521 60.3867 253.75 60.4818 253.92 60.6512C254.089 60.8205 254.184 61.0501 254.184 61.2896Z" fill="white"/>
</g>
<path d="M182.603 86.2691V87.3383H181.811V86.2849C180.973 86.2598 180.162 85.9839 179.483 85.4929L179.911 84.5346C180.463 84.9507 181.122 85.2008 181.811 85.2553V83.3545C180.758 83.1011 179.625 82.7605 179.625 81.4379C179.625 80.4717 180.33 79.6242 181.811 79.4817V78.4045H182.603V79.4579C183.287 79.4919 183.951 79.6961 184.536 80.0519L184.14 81.0102C183.67 80.7324 183.146 80.557 182.603 80.4954V82.4279C183.657 82.6893 184.805 83.0219 184.805 84.3366C184.805 85.287 184.092 86.1186 182.603 86.2691ZM181.811 82.2061V80.5192C181.138 80.6221 180.853 80.9627 180.853 81.3825C180.853 81.8022 181.273 82.0477 181.827 82.2061H181.811ZM183.578 84.4C183.578 83.9327 183.158 83.7189 182.588 83.5525V85.2395C183.3 85.1286 183.593 84.8039 183.593 84.4H183.578Z" fill="#407BFF"/>
<path d="M190.484 79.5452V86.198H189.288V80.5827H187.878V79.5452H190.484Z" fill="#407BFF"/>
<path d="M197.208 84.2892C197.208 85.5247 196.138 86.293 194.483 86.293C192.828 86.293 191.775 85.501 191.775 84.2892C191.77 83.9487 191.869 83.6149 192.059 83.332C192.248 83.049 192.519 82.8305 192.836 82.7052C192.586 82.5704 192.38 82.3683 192.24 82.1218C192.1 81.8753 192.032 81.5945 192.044 81.3113C192.044 80.1708 193.042 79.458 194.515 79.458C195.988 79.458 197.002 80.1708 197.002 81.3113C197.009 81.6005 196.934 81.8858 196.783 82.1331C196.633 82.3803 196.415 82.5789 196.154 82.7052C196.47 82.8308 196.74 83.0497 196.928 83.3327C197.117 83.6157 197.214 83.9494 197.208 84.2892ZM195.964 84.2892C195.964 83.6319 195.394 83.2279 194.483 83.2279C193.572 83.2279 193.018 83.6319 193.018 84.2892C193.018 84.9466 193.572 85.3584 194.483 85.3584C195.394 85.3584 195.956 84.9228 195.956 84.2496L195.964 84.2892ZM193.248 81.3588C193.248 81.929 193.715 82.2934 194.499 82.2934C195.283 82.2934 195.774 81.929 195.774 81.3588C195.774 80.7886 195.259 80.4242 194.499 80.4242C193.739 80.4242 193.248 80.7648 193.248 81.3588Z" fill="#407BFF"/>
<path d="M198.055 85.4771C198.055 85.3204 198.102 85.1673 198.189 85.037C198.276 84.9068 198.399 84.8053 198.544 84.7453C198.689 84.6854 198.848 84.6697 199.002 84.7003C199.155 84.7308 199.296 84.8063 199.407 84.917C199.518 85.0278 199.593 85.1689 199.624 85.3225C199.655 85.4762 199.639 85.6354 199.579 85.7801C199.519 85.9249 199.417 86.0486 199.287 86.1356C199.157 86.2226 199.004 86.2691 198.847 86.2691C198.637 86.2691 198.436 86.1856 198.287 86.0371C198.139 85.8886 198.055 85.6871 198.055 85.4771Z" fill="#407BFF"/>
<path d="M202.569 79.5452V86.198H201.334V80.5827H199.932V79.5452H202.569Z" fill="#407BFF"/>
<path d="M208.708 85.1524V86.1979H203.805V85.4059L206.45 82.9032C207.092 82.2854 207.242 81.8973 207.242 81.5251C207.242 80.9152 206.823 80.5668 206.007 80.5668C205.707 80.5464 205.407 80.5983 205.131 80.7182C204.855 80.8382 204.612 81.0225 204.423 81.2558L203.56 80.5905C203.866 80.2235 204.254 79.9329 204.693 79.7418C205.131 79.5508 205.608 79.4644 206.086 79.4896C207.527 79.4896 208.462 80.2262 208.462 81.3984C208.453 81.8094 208.348 82.2126 208.157 82.5767C207.966 82.9407 207.694 83.2557 207.361 83.4972L205.579 85.192L208.708 85.1524Z" fill="#407BFF"/>
<path d="M214.822 84.2892C214.822 85.5247 213.745 86.293 212.097 86.293C210.45 86.293 209.389 85.501 209.389 84.2892C209.384 83.9487 209.483 83.6149 209.673 83.332C209.862 83.049 210.133 82.8305 210.45 82.7052C210.201 82.5704 209.994 82.3683 209.854 82.1218C209.714 81.8753 209.646 81.5945 209.658 81.3113C209.658 80.1708 210.656 79.458 212.129 79.458C213.602 79.458 214.616 80.1708 214.616 81.3113C214.622 81.6001 214.545 81.8846 214.395 82.1315C214.245 82.3784 214.028 82.5774 213.769 82.7052C214.084 82.8308 214.354 83.0497 214.543 83.3327C214.731 83.6157 214.828 83.9494 214.822 84.2892ZM213.579 84.2892C213.579 83.6319 213.008 83.2279 212.097 83.2279C211.187 83.2279 210.632 83.6319 210.632 84.2892C210.632 84.9466 211.179 85.3584 212.097 85.3584C213.016 85.3584 213.579 84.9228 213.579 84.2496V84.2892ZM210.838 81.3984C210.838 81.9686 211.313 82.333 212.097 82.333C212.882 82.333 213.365 81.9686 213.365 81.3984C213.365 80.8282 212.858 80.4639 212.097 80.4639C211.337 80.4639 210.838 80.7648 210.838 81.3588V81.3984Z" fill="#407BFF"/>
<path d="M189.201 125.687V126.273H188.765V125.687C188.301 125.674 187.851 125.522 187.474 125.251L187.712 124.721C188.019 124.949 188.384 125.086 188.765 125.117V124.063C188.179 123.921 187.553 123.731 187.553 123.002C187.553 122.463 187.941 121.996 188.765 121.917V121.323H189.201V121.909C189.578 121.922 189.946 122.031 190.27 122.226L190.056 122.757C189.792 122.606 189.502 122.51 189.201 122.471V123.541C189.787 123.683 190.42 123.865 190.42 124.602C190.42 125.133 190.024 125.6 189.201 125.687ZM188.765 123.43V122.487C188.393 122.551 188.234 122.741 188.234 122.97C188.234 123.2 188.496 123.343 188.765 123.43ZM189.747 124.649C189.747 124.388 189.517 124.269 189.201 124.174V125.109C189.581 125.053 189.747 124.871 189.747 124.649Z" fill="black"/>
<path d="M193.564 121.957V125.64H192.883V122.527H192.091V121.957H193.564Z" fill="black"/>
<path d="M195.568 121.957V125.64H194.887V122.527H194.095V121.957H195.568Z" fill="black"/>
<path d="M198.982 124.507C198.982 125.156 198.515 125.695 197.525 125.695C197.029 125.705 196.543 125.555 196.139 125.267L196.432 124.737C196.742 124.977 197.124 125.106 197.517 125.101C198.008 125.101 198.309 124.879 198.309 124.539C198.309 124.198 198.087 123.961 197.319 123.961H196.416L196.606 121.957H198.792V122.527H197.208L197.129 123.382H197.477C198.546 123.382 198.982 123.858 198.982 124.507Z" fill="black"/>
<path d="M200.217 125.244C200.208 125.4 200.167 125.554 200.098 125.695L199.829 126.44H199.401L199.615 125.648C199.539 125.616 199.474 125.562 199.43 125.493C199.386 125.423 199.365 125.342 199.37 125.259C199.361 125.199 199.366 125.137 199.384 125.079C199.401 125.02 199.431 124.966 199.471 124.92C199.511 124.874 199.561 124.837 199.616 124.812C199.672 124.787 199.732 124.774 199.793 124.774C199.854 124.774 199.915 124.787 199.97 124.812C200.026 124.837 200.076 124.874 200.116 124.92C200.156 124.966 200.186 125.02 200.203 125.079C200.221 125.137 200.225 125.199 200.217 125.259V125.244Z" fill="black"/>
<path d="M203.385 125.061V125.639H200.669V125.196L202.134 123.81C202.26 123.718 202.363 123.6 202.436 123.462C202.508 123.325 202.549 123.173 202.554 123.018C202.554 122.685 202.324 122.487 201.873 122.487C201.707 122.478 201.542 122.508 201.39 122.575C201.238 122.643 201.105 122.746 201.002 122.875L200.526 122.503C200.697 122.3 200.912 122.139 201.155 122.033C201.399 121.927 201.663 121.879 201.928 121.893C202.72 121.893 203.243 122.297 203.243 122.955C203.238 123.183 203.181 123.406 203.075 123.608C202.969 123.81 202.818 123.985 202.633 124.119L201.651 125.053L203.385 125.061Z" fill="black"/>
<path d="M203.766 123.794C203.766 122.582 204.431 121.901 205.302 121.901C206.173 121.901 206.847 122.582 206.847 123.794C206.847 125.006 206.181 125.695 205.302 125.695C204.423 125.695 203.766 125.006 203.766 123.794ZM206.142 123.794C206.142 122.907 205.793 122.495 205.286 122.495C204.779 122.495 204.439 122.907 204.439 123.794C204.439 124.681 204.787 125.101 205.286 125.101C205.785 125.101 206.157 124.689 206.157 123.794H206.142Z" fill="black"/>
<path d="M168.498 117.054C167.103 122.728 167.423 128.689 169.415 134.181C171.408 139.674 174.985 144.452 179.694 147.912C184.402 151.371 190.031 153.357 195.868 153.618C201.705 153.878 207.489 152.402 212.487 149.376C217.485 146.349 221.473 141.909 223.948 136.616C226.422 131.323 227.271 125.414 226.388 119.639C225.504 113.863 222.928 108.479 218.984 104.167C215.041 99.8559 209.907 96.8107 204.233 95.4168C200.466 94.4904 196.553 94.3152 192.718 94.9012C188.883 95.4873 185.201 96.8231 181.883 98.8325C178.564 100.842 175.674 103.485 173.378 106.612C171.081 109.738 169.423 113.287 168.498 117.054ZM180.703 120.048C181.503 116.788 183.252 113.838 185.729 111.572C188.205 109.306 191.299 107.825 194.617 107.317C197.935 106.809 201.33 107.296 204.371 108.717C207.412 110.139 209.964 112.43 211.703 115.301C213.442 118.172 214.291 121.495 214.142 124.848C213.992 128.202 212.852 131.436 210.865 134.142C208.877 136.847 206.132 138.903 202.977 140.048C199.821 141.194 196.397 141.377 193.137 140.577C188.766 139.503 185.001 136.737 182.669 132.887C180.337 129.038 179.63 124.419 180.703 120.048Z" fill="#263238"/>
<path d="M171.999 139.555C174.706 143.968 178.526 147.591 183.075 150.063C187.624 152.534 192.742 153.767 197.918 153.637C203.093 153.508 208.144 152.02 212.563 149.324C216.983 146.628 220.616 142.818 223.099 138.275C225.583 133.732 226.829 128.617 226.712 123.441C226.596 118.266 225.121 113.211 222.437 108.785C219.752 104.358 215.951 100.715 211.415 98.2202C206.878 95.7253 201.766 94.4663 196.59 94.5693C197.557 94.5529 198.515 94.7603 199.388 95.1753C200.262 95.5903 201.028 96.2016 201.626 96.9615C202.224 97.7214 202.638 98.6094 202.836 99.5559C203.034 100.502 203.011 101.482 202.768 102.418C202.425 103.754 201.644 104.936 200.55 105.776C199.464 106.63 198.13 107.105 196.749 107.13H196.392C199.379 106.991 202.349 107.644 205.002 109.021C207.656 110.399 209.898 112.453 211.503 114.976C213.107 117.499 214.017 120.4 214.14 123.388C214.263 126.375 213.594 129.342 212.202 131.987C210.81 134.633 208.744 136.865 206.212 138.455C203.681 140.046 200.774 140.94 197.786 141.046C194.798 141.153 191.835 140.468 189.197 139.062C186.559 137.655 184.339 135.577 182.762 133.037C181.886 131.603 180.48 130.573 178.849 130.17C177.643 129.873 176.375 129.941 175.207 130.366C174.039 130.791 173.023 131.553 172.289 132.556C171.555 133.559 171.136 134.758 171.084 136C171.032 137.241 171.351 138.471 171.999 139.531V139.555Z" fill="#407BFF"/>
<path d="M149.054 174.3H146.235V183.511H149.054V174.3Z" fill="#407BFF"/>
<path d="M156.134 176.676H153.315V183.511H156.134V176.676Z" fill="#407BFF"/>
<path d="M163.207 166.38H160.388V183.511H163.207V166.38Z" fill="#407BFF"/>
<path d="M170.288 162.42H167.468V183.511H170.288V162.42Z" fill="#407BFF"/>
<path d="M177.368 166.38H174.549V183.511H177.368V166.38Z" fill="#407BFF"/>
<path d="M184.441 174.3H181.621V183.511H184.441V174.3Z" fill="#407BFF"/>
<path d="M191.513 175.884H188.694V183.511H191.513V175.884Z" fill="#407BFF"/>
<path d="M198.594 176.676H195.774V183.511H198.594V176.676Z" fill="#407BFF"/>
<path d="M205.674 174.3H202.854V183.511H205.674V174.3Z" fill="#407BFF"/>
<path d="M212.747 170.34H209.927V183.511H212.747V170.34Z" fill="#407BFF"/>
<path d="M219.827 167.172H217.008V183.511H219.827V167.172Z" fill="#407BFF"/>
<path d="M226.9 164.004H224.08V183.511H226.9V164.004Z" fill="#407BFF"/>
<path d="M233.98 160.044H231.161V183.511H233.98V160.044Z" fill="#407BFF"/>
<path d="M241.061 165.588H238.241V183.511H241.061V165.588Z" fill="#407BFF"/>
<path d="M248.133 174.3H245.314V183.511H248.133V174.3Z" fill="#407BFF"/>
<path d="M163.207 166.38H160.388V170.34H163.207V166.38Z" fill="#263238"/>
<path d="M170.288 162.42H167.468V170.34H170.288V162.42Z" fill="#263238"/>
<path d="M177.368 166.38H174.549V170.34H177.368V166.38Z" fill="#263238"/>
<path d="M219.827 167.172H217.008V170.34H219.827V167.172Z" fill="#263238"/>
<path d="M226.9 164.004H224.08V170.34H226.9V164.004Z" fill="#263238"/>
<path d="M233.98 160.044H231.161V170.34H233.98V160.044Z" fill="#263238"/>
<path d="M241.061 165.588H238.241V170.34H241.061V165.588Z" fill="#263238"/>
<path d="M248.094 194.892H146.282C144.979 194.892 143.922 195.949 143.922 197.252V209.394C143.922 210.697 144.979 211.754 146.282 211.754H248.094C249.397 211.754 250.454 210.697 250.454 209.394V197.252C250.454 195.949 249.397 194.892 248.094 194.892Z" fill="#407BFF"/>
<g opacity="0.7">
<path d="M223.922 203.279H222.995V204.206H222.425V203.279H221.499V202.757H222.425V201.83H222.995V202.757H223.922V203.279Z" fill="white"/>
<path d="M227.62 204.903V205.497H227.193V204.911C226.728 204.901 226.278 204.749 225.902 204.475L226.139 203.945C226.447 204.172 226.812 204.309 227.193 204.341V203.287C226.607 203.145 225.981 202.955 225.981 202.226C225.981 201.687 226.369 201.22 227.193 201.141V200.539H227.62V201.125C227.998 201.145 228.365 201.256 228.69 201.45L228.476 201.981C228.214 201.826 227.923 201.729 227.62 201.695V202.765C228.207 202.899 228.84 203.089 228.84 203.818C228.84 204.396 228.452 204.824 227.62 204.903ZM227.193 202.646V201.711C226.813 201.767 226.654 201.957 226.654 202.194C226.654 202.432 226.884 202.559 227.193 202.646ZM228.167 203.865C228.167 203.612 227.937 203.485 227.62 203.398V204.333C228.009 204.269 228.167 204.095 228.167 203.865Z" fill="white"/>
<path d="M233.497 201.173V201.632L232.056 204.863H231.319L232.705 201.751H231.264V202.384H230.63V201.173H233.497Z" fill="white"/>
<path d="M236.499 203.731C236.499 204.38 236.032 204.919 235.042 204.919C234.546 204.929 234.06 204.779 233.656 204.491L233.949 203.96C234.262 204.195 234.643 204.32 235.034 204.317C235.525 204.317 235.826 204.103 235.826 203.755C235.826 203.406 235.604 203.184 234.836 203.184H233.949L234.139 201.173H236.301V201.751H234.717L234.638 202.606H234.986C236.063 202.606 236.499 203.073 236.499 203.731Z" fill="white"/>
<path d="M237.735 204.46C237.726 204.619 237.686 204.775 237.616 204.919L237.347 205.655H236.919L237.133 204.863C237.056 204.831 236.991 204.775 236.947 204.704C236.903 204.633 236.882 204.551 236.887 204.467C236.879 204.407 236.884 204.345 236.901 204.287C236.919 204.228 236.949 204.174 236.989 204.128C237.029 204.082 237.078 204.045 237.134 204.02C237.19 203.995 237.25 203.982 237.311 203.982C237.372 203.982 237.432 203.995 237.488 204.02C237.544 204.045 237.593 204.082 237.633 204.128C237.673 204.174 237.703 204.228 237.721 204.287C237.738 204.345 237.743 204.407 237.735 204.467V204.46Z" fill="white"/>
<path d="M238.115 203.018C238.115 201.806 238.78 201.125 239.651 201.125C240.522 201.125 241.235 201.806 241.235 203.018C241.235 204.23 240.578 204.919 239.651 204.919C238.725 204.919 238.115 204.23 238.115 203.018ZM240.491 203.018C240.491 202.131 240.142 201.719 239.635 201.719C239.129 201.719 238.788 202.131 238.788 203.018C238.788 203.905 239.136 204.317 239.635 204.317C240.134 204.317 240.507 203.913 240.507 203.018H240.491Z" fill="white"/>
<path d="M244.34 203.731C244.34 204.38 243.873 204.919 242.883 204.919C242.387 204.929 241.901 204.779 241.497 204.491L241.79 203.96C242.102 204.195 242.484 204.32 242.875 204.317C243.366 204.317 243.667 204.103 243.667 203.755C243.667 203.406 243.445 203.184 242.677 203.184H241.79L241.98 201.173H244.142V201.751H242.558L242.479 202.606H242.827C243.936 202.606 244.34 203.073 244.34 203.731Z" fill="white"/>
</g>
<path opacity="0.7" d="M176.426 202.02H151.62C151.37 202.02 151.131 201.921 150.954 201.744C150.777 201.567 150.678 201.327 150.678 201.077C150.677 200.953 150.7 200.83 150.747 200.714C150.794 200.599 150.863 200.494 150.951 200.406C151.039 200.317 151.143 200.247 151.258 200.199C151.373 200.152 151.496 200.127 151.62 200.127H176.426C176.676 200.129 176.916 200.23 177.093 200.408C177.269 200.586 177.368 200.827 177.368 201.077C177.366 201.327 177.266 201.565 177.09 201.742C176.914 201.918 176.675 202.018 176.426 202.02Z" fill="white"/>
<path opacity="0.7" d="M165.338 206.495H151.62C151.496 206.495 151.373 206.47 151.258 206.422C151.143 206.374 151.039 206.304 150.951 206.216C150.863 206.127 150.794 206.023 150.747 205.907C150.7 205.792 150.677 205.669 150.678 205.544C150.678 205.294 150.777 205.055 150.954 204.878C151.131 204.701 151.37 204.602 151.62 204.602H165.338C165.587 204.604 165.826 204.704 166.002 204.88C166.178 205.056 166.278 205.295 166.28 205.544C166.28 205.795 166.181 206.036 166.005 206.214C165.828 206.392 165.588 206.493 165.338 206.495Z" fill="white"/>
<path d="M248.094 217.86H146.282C144.979 217.86 143.922 218.917 143.922 220.22V232.361C143.922 233.665 144.979 234.722 146.282 234.722H248.094C249.397 234.722 250.454 233.665 250.454 232.361V220.22C250.454 218.917 249.397 217.86 248.094 217.86Z" fill="#407BFF"/>
<g opacity="0.7">
<path d="M222.1 226.089H223.549V226.643H222.1V226.089Z" fill="white"/>
<path d="M227.201 227.871V228.465H226.765V227.879C226.301 227.866 225.851 227.714 225.474 227.443L225.712 226.913C226.021 227.137 226.385 227.274 226.765 227.309V226.255C226.187 226.113 225.553 225.923 225.553 225.194C225.553 224.655 225.949 224.188 226.765 224.109V223.507H227.201V224.093C227.578 224.113 227.945 224.224 228.27 224.418L228.096 224.988C227.833 224.835 227.542 224.737 227.24 224.703V225.772C227.826 225.907 228.46 226.097 228.46 226.825C228.42 227.364 228.024 227.792 227.201 227.871ZM226.765 225.614V224.679C226.393 224.735 226.234 224.925 226.234 225.162C226.234 225.4 226.464 225.527 226.765 225.614ZM227.747 226.833C227.747 226.58 227.517 226.453 227.201 226.366V227.301C227.581 227.237 227.747 227.063 227.747 226.833Z" fill="white"/>
<path d="M232.974 226.699C232.974 227.348 232.507 227.887 231.509 227.887C231.013 227.895 230.528 227.745 230.123 227.459L230.416 226.928C230.729 227.162 231.11 227.287 231.501 227.285C231.992 227.285 232.293 227.071 232.293 226.722C232.293 226.374 232.063 226.152 231.303 226.152H230.408L230.598 224.141H232.76V224.719H231.176L231.097 225.574H231.454C232.539 225.574 232.974 226.041 232.974 226.699Z" fill="white"/>
<path d="M236.016 226.699C236.016 227.348 235.541 227.887 234.551 227.887C234.055 227.895 233.569 227.745 233.165 227.459L233.458 226.928C233.771 227.162 234.152 227.287 234.543 227.285C235.034 227.285 235.335 227.071 235.335 226.722C235.335 226.374 235.105 226.152 234.337 226.152H233.45L233.64 224.141H235.802V224.719H234.218L234.139 225.574H234.495C235.588 225.574 236.016 226.041 236.016 226.699Z" fill="white"/>
<path d="M237.259 227.427C237.251 227.587 237.21 227.743 237.14 227.887L236.871 228.623H236.443L236.649 227.831C236.574 227.797 236.51 227.741 236.466 227.671C236.423 227.6 236.401 227.518 236.404 227.435C236.4 227.378 236.409 227.32 236.429 227.267C236.449 227.213 236.481 227.164 236.521 227.123C236.561 227.082 236.61 227.05 236.663 227.028C236.716 227.007 236.774 226.997 236.831 227C236.888 226.999 236.944 227.009 236.996 227.03C237.049 227.051 237.096 227.083 237.136 227.123C237.176 227.163 237.207 227.21 237.229 227.262C237.25 227.315 237.26 227.371 237.259 227.427Z" fill="white"/>
<path d="M240.966 226.992H240.308V227.831H239.643V226.992H237.6V226.517L239.413 224.141H240.15L238.439 226.414H239.643V225.669H240.285V226.414H240.942L240.966 226.992Z" fill="white"/>
<path d="M244.292 226.77C244.292 227.459 243.698 227.887 242.779 227.887C241.861 227.887 241.283 227.459 241.283 226.77C241.278 226.581 241.332 226.395 241.437 226.238C241.541 226.08 241.692 225.959 241.869 225.891C241.724 225.817 241.603 225.704 241.521 225.563C241.44 225.422 241.401 225.261 241.409 225.099C241.409 224.473 241.964 224.077 242.779 224.077C243.595 224.077 244.165 224.473 244.165 225.099C244.172 225.263 244.131 225.425 244.047 225.566C243.962 225.707 243.838 225.82 243.69 225.891C243.869 225.958 244.022 226.078 244.13 226.235C244.238 226.393 244.294 226.579 244.292 226.77ZM243.603 226.77C243.603 226.406 243.286 226.176 242.811 226.176C242.336 226.176 242.019 226.406 242.019 226.77C242.019 227.134 242.328 227.364 242.811 227.364C243.294 227.364 243.603 227.126 243.603 226.754V226.77ZM242.09 225.186C242.09 225.503 242.352 225.709 242.779 225.709C243.207 225.709 243.492 225.503 243.492 225.186C243.492 224.869 243.207 224.663 242.779 224.663C242.352 224.663 242.09 224.814 242.09 225.146V225.186Z" fill="white"/>
</g>
<path opacity="0.7" d="M176.426 224.988H151.62C151.37 224.988 151.131 224.889 150.954 224.712C150.777 224.535 150.678 224.295 150.678 224.046C150.677 223.921 150.7 223.798 150.747 223.682C150.794 223.567 150.863 223.462 150.951 223.374C151.039 223.286 151.143 223.215 151.258 223.168C151.373 223.12 151.496 223.095 151.62 223.095H176.426C176.676 223.097 176.916 223.198 177.093 223.376C177.269 223.554 177.368 223.795 177.368 224.046C177.366 224.295 177.266 224.533 177.09 224.71C176.914 224.886 176.675 224.986 176.426 224.988Z" fill="white"/>
<path opacity="0.7" d="M165.338 229.463H151.62C151.496 229.463 151.373 229.438 151.258 229.39C151.143 229.342 151.039 229.272 150.951 229.184C150.863 229.096 150.794 228.991 150.747 228.876C150.7 228.76 150.677 228.637 150.678 228.512C150.678 228.262 150.777 228.023 150.954 227.846C151.131 227.669 151.37 227.57 151.62 227.57H165.338C165.587 227.572 165.826 227.672 166.002 227.848C166.178 228.025 166.278 228.263 166.28 228.512C166.28 228.763 166.181 229.004 166.005 229.182C165.828 229.36 165.588 229.461 165.338 229.463Z" fill="white"/>
<path d="M248.094 240.828H146.282C144.979 240.828 143.922 241.885 143.922 243.188V255.33C143.922 256.633 144.979 257.69 146.282 257.69H248.094C249.397 257.69 250.454 256.633 250.454 255.33V243.188C250.454 241.885 249.397 240.828 248.094 240.828Z" fill="#407BFF"/>
<g opacity="0.7">
<path d="M224.524 249.215H223.589V250.142H223.027V249.215H222.1V248.693H223.027V247.766H223.589V248.693H224.524V249.215Z" fill="white"/>
<path d="M228.222 250.839V251.433H227.787V250.847C227.322 250.834 226.873 250.682 226.496 250.411L226.733 249.881C227.042 250.105 227.406 250.242 227.787 250.277V249.223C227.208 249.081 226.575 248.891 226.575 248.162C226.575 247.623 226.971 247.156 227.787 247.077V246.475H228.222V247.061C228.6 247.081 228.967 247.192 229.291 247.386L229.078 247.916C228.815 247.763 228.524 247.666 228.222 247.631V248.7C228.808 248.835 229.442 249.025 229.442 249.754C229.442 250.332 229.046 250.76 228.222 250.839ZM227.787 248.582V247.647C227.414 247.703 227.256 247.893 227.256 248.13C227.256 248.368 227.486 248.495 227.787 248.582ZM228.769 249.801C228.769 249.548 228.539 249.421 228.222 249.334V250.269C228.61 250.205 228.769 250.031 228.769 249.801Z" fill="white"/>
<path d="M232.586 247.109V250.799H231.905V247.687H231.113V247.109H232.586Z" fill="white"/>
<path d="M236.309 249.738C236.309 250.427 235.715 250.855 234.796 250.855C233.877 250.855 233.299 250.427 233.299 249.738C233.294 249.549 233.348 249.363 233.453 249.206C233.558 249.048 233.709 248.927 233.885 248.859C233.74 248.785 233.62 248.672 233.538 248.531C233.456 248.39 233.418 248.229 233.426 248.067C233.426 247.441 233.98 247.045 234.796 247.045C235.612 247.045 236.182 247.441 236.182 248.067C236.189 248.23 236.148 248.391 236.065 248.532C235.982 248.672 235.861 248.786 235.715 248.859C235.892 248.927 236.044 249.048 236.15 249.205C236.256 249.362 236.312 249.548 236.309 249.738ZM235.62 249.738C235.62 249.374 235.303 249.144 234.828 249.144C234.352 249.144 234.036 249.374 234.036 249.738C234.036 250.102 234.345 250.332 234.828 250.332C235.311 250.332 235.62 250.094 235.62 249.722V249.738ZM234.107 248.154C234.107 248.471 234.368 248.677 234.796 248.677C235.224 248.677 235.509 248.471 235.509 248.154C235.509 247.837 235.224 247.631 234.796 247.631C234.368 247.631 234.107 247.782 234.107 248.114V248.154Z" fill="white"/>
<path d="M237.647 250.395C237.639 250.555 237.598 250.711 237.528 250.855L237.259 251.591H236.807L237.021 250.799C236.944 250.767 236.878 250.712 236.833 250.641C236.787 250.57 236.765 250.487 236.768 250.403C236.768 250.29 236.813 250.181 236.893 250.101C236.973 250.021 237.082 249.976 237.196 249.976C237.309 249.976 237.418 250.021 237.498 250.101C237.578 250.181 237.623 250.29 237.623 250.403L237.647 250.395Z" fill="white"/>
<path d="M240.815 250.221V250.799H238.099V250.332L239.564 248.938C239.92 248.598 239.984 248.384 239.984 248.146C239.984 247.806 239.746 247.615 239.295 247.615C239.131 247.607 238.968 247.637 238.818 247.703C238.668 247.769 238.535 247.869 238.431 247.996L237.956 247.631C238.125 247.426 238.34 247.264 238.584 247.158C238.828 247.052 239.093 247.006 239.358 247.021C240.15 247.021 240.673 247.425 240.673 248.075C240.668 248.303 240.611 248.527 240.505 248.729C240.399 248.931 240.248 249.105 240.063 249.239L239.073 250.182L240.815 250.221Z" fill="white"/>
<path d="M241.195 248.954C241.195 247.742 241.853 247.061 242.732 247.061C243.611 247.061 244.276 247.742 244.276 248.954C244.276 250.166 243.611 250.855 242.732 250.855C241.853 250.855 241.195 250.166 241.195 248.954ZM243.571 248.954C243.571 248.067 243.223 247.655 242.716 247.655C242.209 247.655 241.869 248.067 241.869 248.954C241.869 249.841 242.217 250.253 242.716 250.253C243.215 250.253 243.587 249.849 243.587 248.954H243.571Z" fill="white"/>
</g>
<path opacity="0.7" d="M176.426 247.956H151.62C151.37 247.956 151.131 247.857 150.954 247.68C150.777 247.503 150.678 247.263 150.678 247.014C150.677 246.889 150.7 246.766 150.747 246.65C150.794 246.535 150.863 246.43 150.951 246.342C151.039 246.254 151.143 246.183 151.258 246.136C151.373 246.088 151.496 246.063 151.62 246.063H176.426C176.676 246.065 176.916 246.166 177.093 246.344C177.269 246.522 177.368 246.763 177.368 247.014C177.366 247.263 177.266 247.501 177.09 247.678C176.914 247.854 176.675 247.954 176.426 247.956Z" fill="white"/>
<path opacity="0.7" d="M165.338 252.431H151.62C151.496 252.431 151.373 252.406 151.258 252.358C151.143 252.31 151.039 252.24 150.951 252.152C150.863 252.064 150.794 251.959 150.747 251.843C150.7 251.728 150.677 251.605 150.678 251.48C150.678 251.23 150.777 250.991 150.954 250.814C151.131 250.637 151.37 250.538 151.62 250.538H165.338C165.587 250.54 165.826 250.64 166.002 250.816C166.178 250.992 166.278 251.231 166.28 251.48C166.28 251.731 166.181 251.972 166.005 252.15C165.828 252.328 165.588 252.429 165.338 252.431Z" fill="white"/>
<path d="M86.5375 79.8651L97.4037 79.8727C99.0177 79.8738 100.327 78.5663 100.328 76.9523L100.336 66.086C100.337 64.472 99.0294 63.1626 97.4154 63.1615L86.5491 63.1539C84.9351 63.1528 83.6257 64.4603 83.6246 66.0744L83.617 76.9406C83.6159 78.5546 84.9234 79.864 86.5375 79.8651Z" fill="#407BFF"/>
<path opacity="0.6" d="M87.3814 68.2193C88.5694 66.3027 90.8187 67.0392 91.9829 68.5282C93.1471 67.0392 95.4043 66.3106 96.5844 68.2272C98.5723 71.4586 94.4698 74.4524 92.5294 75.6166L91.9829 75.9492C91.8245 75.8621 91.6503 75.7512 91.4285 75.6166C89.496 74.4444 85.3935 71.4507 87.3814 68.2193Z" fill="white"/>
<path d="M90.1851 78.5709C90.1851 78.5709 92.371 83.5843 97.3131 85.1524C97.3131 85.1524 94.5965 83.5684 94.8103 78.365L90.1851 78.5709Z" fill="#407BFF"/>
<path d="M85.5357 111.613C85.5479 111.706 85.5391 111.8 85.51 111.889C85.481 111.978 85.4324 112.059 85.3678 112.127C85.3032 112.194 85.2243 112.247 85.1369 112.28C85.0494 112.313 84.9557 112.326 84.8625 112.318L77.6157 112.128C77.4156 112.118 77.2258 112.036 77.0806 111.898C76.9353 111.76 76.8442 111.575 76.8237 111.376L75.5882 97.0483C75.5806 96.9516 75.5923 96.8542 75.6224 96.762C75.6526 96.6697 75.7007 96.5843 75.764 96.5107C75.8273 96.4371 75.9046 96.3767 75.9913 96.3331C76.078 96.2894 76.1725 96.2634 76.2693 96.2563L83.5003 96.4543C83.709 96.4844 83.9012 96.5847 84.0452 96.7388C84.1892 96.8929 84.2764 97.0915 84.2923 97.3018L85.5357 111.613Z" fill="#263238"/>
<path opacity="0.5" d="M83.5085 97.1752L84.744 111.637C84.7632 111.722 84.7621 111.809 84.7408 111.893C84.7195 111.977 84.6785 112.055 84.6212 112.12C84.564 112.185 84.4921 112.235 84.4116 112.267C84.331 112.299 84.2441 112.311 84.1579 112.302L78.0278 112.136C77.616 112.136 76.8636 111.875 76.8319 111.471L75.5806 96.9613C75.5806 96.5495 76.2617 96.2406 76.6735 96.2564L82.8036 96.4228C82.9955 96.433 83.176 96.517 83.3074 96.6572C83.4387 96.7974 83.5108 96.983 83.5085 97.1752Z" fill="white"/>
<path d="M81.0214 115.55L80.174 112.762C80.5424 111.758 80.8259 110.724 81.0214 109.673C81.0927 108.73 78.59 101.396 78.59 101.396C78.59 101.396 75.8496 103.567 74.2023 104.66C72.5549 105.752 75.1764 112.833 75.5883 113.015C76.0001 113.197 76.8 113.665 76.8 113.665L77.3465 115.938L81.0214 115.55Z" fill="#E4897B"/>
<path d="M76.4993 118.139C77.3467 121.418 81.0137 134.676 85.4014 136.458C86.5498 136.926 87.9041 136.633 89.3614 135.896C94.1134 133.433 99.499 126.004 99.499 126.004L98.4139 120.587L97.4081 115.55C93.4481 117.506 88.8941 127.041 87.6348 126.97C86.5735 126.915 83.9362 118.749 83.16 116.262C83.0947 116.074 82.9605 115.916 82.7843 115.822C82.608 115.728 82.4028 115.705 82.2096 115.755L77.0775 117.205C76.8789 117.256 76.7077 117.381 76.5999 117.556C76.4921 117.73 76.456 117.939 76.4993 118.139Z" fill="#407BFF"/>
<path d="M81.3301 114.053L81.7577 115.866L77.0374 117.205L76.4751 115.233L81.3301 114.053Z" fill="#407BFF"/>
<path opacity="0.2" d="M81.3301 114.053L81.7577 115.866L77.0374 117.205L76.4751 115.233L81.3301 114.053Z" fill="black"/>
<path opacity="0.2" d="M89.3218 135.896C94.0738 133.433 99.4594 126.004 99.4594 126.004L98.3743 120.587C95.9271 122.86 90.0979 128.942 89.3218 135.896Z" fill="black"/>
<path d="M125.302 216.957L125.263 210.043C125.263 209.931 125.302 209.822 125.373 209.734C125.443 209.646 125.541 209.585 125.651 209.56L130.72 208.412C130.937 208.365 131.164 208.406 131.351 208.526C131.538 208.646 131.67 208.836 131.717 209.053C131.725 209.114 131.725 209.175 131.717 209.235C131.717 211.477 131.567 213.108 131.575 215.92C131.575 217.646 131.797 222.866 131.805 225.257C131.813 227.649 129.429 227.966 129.239 226.992C128.256 222.612 126.918 219.31 125.651 217.916C125.416 217.652 125.292 217.31 125.302 216.957Z" fill="#263238"/>
<path d="M94.4222 153.281L92.1887 164.994C92.1887 164.994 74.5351 193.57 74.543 210.067C74.543 229.78 125.968 218.407 125.968 218.407V209.33C125.968 209.33 95.2379 211.976 92.4659 208.895C89.1078 205.149 109.827 176.193 109.827 176.193L94.4222 153.281Z" fill="#263238"/>
<path opacity="0.2" d="M74.543 210.067C74.543 220.933 90.1771 222.351 104.203 221.44C111.19 220.941 118.136 219.994 125.001 218.605C125.619 218.486 125.96 218.407 125.96 218.407V209.33L124.835 209.417C121.342 209.702 110.46 210.487 102.231 210.368C97.3367 210.304 93.3767 209.9 92.4659 208.887C90.8106 207.049 94.9766 199.121 99.6414 191.534C104.465 183.693 109.827 176.201 109.827 176.201L103.079 166.15L94.4301 153.288L92.1887 165.002C92.1887 165.002 74.5351 193.569 74.543 210.067Z" fill="white"/>
<path opacity="0.2" d="M102.231 210.368L104.203 221.456C111.189 220.956 118.136 220.009 125.001 218.62L124.835 209.433C121.342 209.702 110.46 210.486 102.231 210.368Z" fill="black"/>
<path opacity="0.2" d="M103.047 178.68C103.047 178.68 100.18 185.436 99.6412 191.526C104.464 183.685 109.826 176.193 109.826 176.193L103.078 166.143L99.5224 164.994C99.5224 164.994 98.7304 169.611 103.047 178.68Z" fill="black"/>
<path d="M107.64 277.87H114.554C114.668 277.87 114.779 277.909 114.867 277.981C114.955 278.053 115.016 278.154 115.038 278.266L116.162 283.335C116.185 283.442 116.187 283.554 116.167 283.662C116.146 283.77 116.105 283.873 116.045 283.966C115.984 284.058 115.906 284.137 115.815 284.198C115.723 284.26 115.621 284.303 115.513 284.325C115.452 284.333 115.391 284.333 115.331 284.325C113.097 284.285 111.466 284.151 108.654 284.151C106.92 284.151 101.7 284.333 99.3085 284.333C96.9167 284.333 96.6078 281.957 97.5899 281.751C101.978 280.792 105.28 279.47 106.682 278.211C106.946 277.979 107.289 277.857 107.64 277.87Z" fill="#263238"/>
<path d="M125.231 153.653C125.231 153.653 126.759 159.395 125.231 185.689C122.855 226.081 115.386 279.81 115.386 279.81L106.674 278.226C106.674 278.226 107.791 197.822 106.619 175.631C106.619 175.631 94.3269 164.606 94.414 153.272C94.5012 141.939 125.231 153.653 125.231 153.653Z" fill="#263238"/>
<path opacity="0.2" d="M125.231 153.653C125.231 153.653 126.759 159.395 125.231 185.689C122.855 226.081 115.386 279.81 115.386 279.81L106.674 278.226C106.674 278.226 107.791 197.822 106.619 175.631C106.619 175.631 94.3269 164.606 94.414 153.272C94.5012 141.939 125.231 153.653 125.231 153.653Z" fill="white"/>
<path d="M93.7804 152.528C93.7783 152.662 93.8027 152.795 93.8522 152.919C93.9017 153.043 93.9754 153.157 94.0689 153.252C94.1624 153.348 94.2739 153.424 94.397 153.477C94.5202 153.529 94.6524 153.557 94.7862 153.558L123.457 154.199L125.492 154.247C125.758 154.255 126.017 154.16 126.213 153.981C126.41 153.802 126.529 153.554 126.545 153.288L127.124 145.741L127.432 141.678L128.906 122.321L129.214 118.234C115.172 107.748 97.3682 115.55 97.3682 115.55C94.1685 125.616 93.82 147.039 93.7804 152.528Z" fill="#407BFF"/>
<path d="M126.031 154.112L93.9787 153.13L93.6064 155.039L126.031 156.092V154.112Z" fill="#407BFF"/>
<path opacity="0.2" d="M126.031 154.112L93.9787 153.13L93.6064 155.039L126.031 156.092V154.112Z" fill="black"/>
<path opacity="0.2" d="M127.433 141.678L128.906 122.321C128.033 122.598 127.225 123.048 126.53 123.644C126.53 123.644 121.524 131.437 127.433 141.678Z" fill="black"/>
<path opacity="0.2" d="M123.457 154.199L125.492 154.247C125.758 154.255 126.016 154.16 126.213 153.981C126.41 153.802 126.529 153.554 126.545 153.288L127.123 145.74C125.719 148.477 124.494 151.303 123.457 154.199Z" fill="black"/>
<g opacity="0.7">
<path d="M97.0674 131.128L97.4159 130.209C97.8858 130.516 98.4394 130.668 98.9999 130.645C99.6493 130.645 99.9107 130.392 99.8948 130.043C99.8473 129.077 97.1862 130.107 97.0911 128.087C97.0911 127.129 97.7643 126.503 98.9444 126.416C99.522 126.379 100.098 126.506 100.608 126.78L100.251 127.699C99.8733 127.46 99.43 127.347 98.984 127.374C98.3583 127.374 98.0732 127.651 98.0891 127.984C98.1366 129.014 100.798 127.984 100.893 129.964C100.932 130.906 100.212 131.548 98.9761 131.619C98.3035 131.666 97.6339 131.494 97.0674 131.128Z" fill="white"/>
</g>
<path d="M119.346 115.288C116.59 117.799 109.842 116.872 109.842 116.872C109.842 116.872 105.621 115.716 106.508 114.393C108.995 113.981 110.198 112.809 110.697 111.336C110.965 110.416 111.049 109.453 110.943 108.501C110.906 107.969 110.837 107.44 110.737 106.917L119.101 100.723C118.008 104.81 116.645 112.326 119.346 115.288Z" fill="#E4897B"/>
<path opacity="0.2" d="M117.152 104.659C116.82 109.673 112.693 111.059 110.682 111.336C110.949 110.416 111.033 109.453 110.927 108.501L117.152 104.659Z" fill="black"/>
<path d="M121.865 87.7266C121.865 87.7266 124.201 95.2743 120.55 98.8542C116.899 102.434 114.737 88.0671 114.737 88.0671L121.865 87.7266Z" fill="#263238"/>
<path d="M109.573 106.774C110.625 107.907 112.016 108.667 113.538 108.94C115.059 109.212 116.628 108.983 118.008 108.287C119.81 107.401 121.209 105.864 121.92 103.986C122.023 103.733 122.102 103.464 122.182 103.194C123.488 98.1731 122.894 89.8254 117.43 87.4811C116.506 87.0775 115.512 86.8597 114.504 86.8403C113.497 86.8209 112.495 87.0001 111.557 87.3679C110.618 87.7356 109.761 88.2846 109.035 88.9835C108.309 89.6823 107.727 90.5174 107.324 91.4411C106.834 92.5456 106.617 93.7516 106.69 94.9576C106.92 100.549 106.785 103.86 109.573 106.774Z" fill="#E4897B"/>
<path d="M115.196 96.6841C115.196 97.1355 115.418 97.5157 115.719 97.5157C116.02 97.5157 116.265 97.1593 116.281 96.7237C116.297 96.2881 116.052 95.8921 115.751 95.8921C115.45 95.8921 115.204 96.2168 115.196 96.6841Z" fill="#263238"/>
<path d="M120.384 96.787C120.344 97.2385 120.613 97.6186 120.906 97.6265C121.2 97.6345 121.453 97.2622 121.469 96.8345C121.485 96.4069 121.239 96.0029 120.938 96.0029C120.637 96.0029 120.384 96.3514 120.384 96.787Z" fill="#263238"/>
<path d="M118.713 96.9771C119.225 98.3898 119.934 99.723 120.82 100.937C120.501 101.156 120.137 101.302 119.755 101.365C119.373 101.428 118.982 101.407 118.61 101.301L118.713 96.9771Z" fill="#DE5753"/>
<path d="M113.628 94.9813C113.677 94.9882 113.726 94.9823 113.772 94.9643C113.818 94.9462 113.858 94.9166 113.889 94.8784C114.092 94.6099 114.354 94.3922 114.655 94.2424C114.956 94.0926 115.287 94.0148 115.624 94.0151C115.688 94.0114 115.749 93.9846 115.796 93.9397C115.842 93.8947 115.871 93.8346 115.876 93.7703C115.882 93.7059 115.865 93.6417 115.827 93.5892C115.789 93.5367 115.734 93.4996 115.671 93.4844C115.246 93.4725 114.824 93.5627 114.441 93.7473C114.058 93.932 113.725 94.2058 113.469 94.5457C113.445 94.57 113.425 94.599 113.412 94.631C113.398 94.6629 113.392 94.6972 113.392 94.7318C113.392 94.7665 113.398 94.8008 113.412 94.8327C113.425 94.8647 113.445 94.8936 113.469 94.918C113.517 94.9499 113.571 94.9715 113.628 94.9813Z" fill="#263238"/>
<path d="M122.61 95.0525C122.662 95.0638 122.716 95.0638 122.768 95.0525C122.833 95.0229 122.884 94.9693 122.911 94.9029C122.937 94.8365 122.937 94.7624 122.91 94.6961C122.747 94.2971 122.488 93.9442 122.157 93.6681C121.825 93.392 121.432 93.2011 121.01 93.1121C120.939 93.103 120.868 93.1221 120.812 93.1651C120.756 93.2081 120.719 93.2715 120.709 93.3417C120.7 93.412 120.719 93.4831 120.762 93.5394C120.805 93.5957 120.868 93.6329 120.938 93.6427C121.266 93.721 121.57 93.875 121.828 94.0923C122.085 94.3096 122.288 94.5842 122.419 94.8941C122.437 94.9334 122.463 94.9682 122.496 94.9956C122.529 95.0231 122.568 95.0426 122.61 95.0525Z" fill="#263238"/>
<path d="M110.967 88.0276L111.339 90.4907C110.919 90.701 110.595 91.0646 110.434 91.5067C110.273 91.9487 110.288 92.4354 110.476 92.8667C111.331 94.9259 110.238 98.181 108.678 99.5116C108.678 99.5116 108.607 98.6166 107.886 98.8463C107.165 99.076 107.466 103.773 109.011 105.974C107.042 103.937 105.637 101.424 104.932 98.68C103.633 94.1577 103.768 90.8075 104.655 89.0176L110.967 88.0276Z" fill="#263238"/>
<path d="M104.164 99.4957C104.764 100.775 105.846 101.766 107.173 102.252C108.931 102.885 109.953 101.341 109.549 99.6065C109.209 98.0621 107.878 95.8287 106.056 95.9633C105.658 95.9934 105.274 96.1235 104.939 96.3414C104.604 96.5594 104.33 96.8582 104.141 97.2103C103.952 97.5624 103.856 97.9564 103.859 98.3559C103.863 98.7553 103.968 99.1473 104.164 99.4957Z" fill="#E4897B"/>
<path d="M118.008 102.941C117.407 103.544 116.852 104.19 116.345 104.873L115.949 104.667C114.143 103.717 113.628 102.68 113.573 101.816C113.566 101.397 113.659 100.982 113.842 100.604C113.941 100.388 114.072 100.188 114.23 100.01C115.088 101.093 116.168 101.979 117.398 102.608C117.738 102.822 118.008 102.941 118.008 102.941Z" fill="#263238"/>
<path d="M117.366 102.608L116.867 103.163C115.172 102.26 114.095 101.404 113.834 100.604C113.933 100.388 114.064 100.188 114.222 100.01C115.073 101.09 116.145 101.976 117.366 102.608Z" fill="white"/>
<path d="M115.917 104.667C114.111 103.717 113.596 102.679 113.541 101.816C114.218 102.194 114.824 102.687 115.331 103.273C115.668 103.665 115.873 104.153 115.917 104.667Z" fill="#DE5753"/>
<path d="M103.942 92.7241C103.73 91.4253 103.875 90.0935 104.36 88.8704C104.846 87.6474 105.653 86.5787 106.698 85.7782C110.381 82.6974 120.724 81.2559 122.292 85.7782C123.86 90.3006 116.226 94.4506 110.682 90.451L103.942 92.7241Z" fill="#263238"/>
<path d="M118.404 111.502L110.373 115.122L109.906 112.223L106.92 113.261C106.409 113.446 105.975 113.797 105.688 114.258C105.401 114.719 105.277 115.263 105.336 115.803L105.668 118.971L109.739 116.745L111.767 119.613L121.413 114.971L118.404 111.502Z" fill="#407BFF"/>
<path opacity="0.7" d="M118.404 111.502L110.373 115.122L109.906 112.223L106.92 113.261C106.409 113.446 105.975 113.797 105.688 114.258C105.401 114.719 105.277 115.263 105.336 115.803L105.668 118.971L109.739 116.745L111.767 119.613L121.413 114.971L118.404 111.502Z" fill="white"/>
<path opacity="0.2" d="M119.687 156.084C119.687 156.084 119.869 160.369 125.405 162.198C125.588 160.139 125.439 158.064 124.962 156.052L119.687 156.084Z" fill="black"/>
<path d="M129.215 118.234C134.125 122.986 141.435 138.185 139.265 144.758C137.428 150.35 128.866 158.761 126.324 161.169C126.232 161.257 126.124 161.325 126.005 161.371C125.886 161.416 125.76 161.437 125.633 161.433C125.506 161.428 125.381 161.398 125.266 161.345C125.15 161.291 125.047 161.215 124.962 161.121L121.92 157.779C121.77 157.615 121.681 157.403 121.669 157.18C121.658 156.958 121.724 156.738 121.857 156.559C123.837 153.954 131.314 143.982 131.82 141.939C132.406 139.563 126.031 130.352 126.031 130.352C125.457 127.685 125.417 124.932 125.912 122.25C126.76 118.131 129.215 118.234 129.215 118.234Z" fill="#407BFF"/>
<path d="M121.706 157.399L120.598 158.547C120.598 158.547 122.324 161.161 124.415 161.715L124.962 161.153L121.706 157.399Z" fill="#407BFF"/>
<path opacity="0.2" d="M121.706 157.399L120.598 158.547C120.598 158.547 122.324 161.161 124.415 161.715L124.962 161.153L121.706 157.399Z" fill="black"/>
</svg>
