<svg width="40" height="41" viewBox="0 0 40 41" fill="none" xmlns="http://www.w3.org/2000/svg">
<rect y="0.5" width="40" height="40" rx="8" fill="#783EFD"/>
<mask id="mask0_6_2120" style="mask-type:alpha" maskUnits="userSpaceOnUse" x="8" y="8" width="24" height="25">
<rect x="8" y="8.5" width="24" height="24" fill="#D9D9D9"/>
</mask>
<g mask="url(#mask0_6_2120)">
<path d="M12 16.904H28V14.8077C28 14.7307 27.9679 14.6602 27.9038 14.5962C27.8398 14.5321 27.7693 14.5 27.6923 14.5H12.3077C12.2307 14.5 12.1603 14.5321 12.0963 14.5962C12.0321 14.6602 12 14.7307 12 14.8077V16.904ZM10.5 14.8077C10.5 14.3026 10.675 13.875 11.025 13.525C11.375 13.175 11.8026 13 12.3077 13H27.6923C28.1974 13 28.625 13.175 28.975 13.525C29.325 13.875 29.5 14.3026 29.5 14.8077V20.096H12V26.1923C12 26.2692 12.0321 26.3398 12.0963 26.4038C12.1603 26.4679 12.2307 26.5 12.3077 26.5H16.6865V28H12.3077C11.8026 28 11.375 27.825 11.025 27.475C10.675 27.125 10.5 26.6974 10.5 26.1923V14.8077ZM22.7962 29.7693L18.8923 25.8652L19.9462 24.8115L22.7962 27.6307L28.4653 21.9615L29.5193 23.046L22.7962 29.7693ZM12 14.8077V26.1923C12 26.2692 12.0321 26.3398 12.0963 26.4038C12.1603 26.4679 12.2307 26.5 12.3077 26.5H12V21.9713V24.8058V14.5H12.3077C12.2307 14.5 12.1603 14.5321 12.0963 14.5962C12.0321 14.6602 12 14.7307 12 14.8077Z" fill="white"/>
</g>
</svg>
