<svg width="80" height="80" viewBox="0 0 80 80" fill="none" xmlns="http://www.w3.org/2000/svg">
<g filter="url(#filter0_d_6_2149)">
<rect x="16" y="12" width="48" height="48" rx="8" fill="white" shape-rendering="crispEdges"/>
<path d="M40.0201 26.9099C36.7101 26.9099 34.0201 29.5999 34.0201 32.9099V35.7999C34.0201 36.4099 33.7601 37.3399 33.4501 37.8599L32.3001 39.7699C31.5901 40.9499 32.0801 42.2599 33.3801 42.6999C37.6901 44.1399 42.3401 44.1399 46.6501 42.6999C47.8601 42.2999 48.3901 40.8699 47.7301 39.7699L46.5801 37.8599C46.2801 37.3399 46.0201 36.4099 46.0201 35.7999V32.9099C46.0201 29.6099 43.3201 26.9099 40.0201 26.9099Z" stroke="#333333" stroke-width="1.5" stroke-miterlimit="10" stroke-linecap="round"/>
<circle cx="47.02" cy="29.9399" r="4" fill="#F23985"/>
<path d="M41.8699 27.1999C41.5599 27.1099 41.2399 27.0399 40.9099 26.9999C39.9499 26.8799 39.0299 26.9499 38.1699 27.1999C38.4599 26.4599 39.1799 25.9399 40.0199 25.9399C40.8599 25.9399 41.5799 26.4599 41.8699 27.1999Z" stroke="#333333" stroke-width="1.5" stroke-miterlimit="10" stroke-linecap="round" stroke-linejoin="round"/>
<path d="M43.02 43.0601C43.02 44.7101 41.67 46.0601 40.02 46.0601C39.2 46.0601 38.44 45.7201 37.9 45.1801C37.36 44.6401 37.02 43.8801 37.02 43.0601" stroke="#333333" stroke-width="1.5" stroke-miterlimit="10"/>
</g>
<defs>
<filter id="filter0_d_6_2149" x="0" y="0" width="80" height="80" filterUnits="userSpaceOnUse" color-interpolation-filters="sRGB">
<feFlood flood-opacity="0" result="BackgroundImageFix"/>
<feColorMatrix in="SourceAlpha" type="matrix" values="0 0 0 0 0 0 0 0 0 0 0 0 0 0 0 0 0 0 127 0" result="hardAlpha"/>
<feOffset dy="4"/>
<feGaussianBlur stdDeviation="8"/>
<feComposite in2="hardAlpha" operator="out"/>
<feColorMatrix type="matrix" values="0 0 0 0 0 0 0 0 0 0.6 0 0 0 0 0.440541 0 0 0 0.08 0"/>
<feBlend mode="multiply" in2="BackgroundImageFix" result="effect1_dropShadow_6_2149"/>
<feBlend mode="normal" in="SourceGraphic" in2="effect1_dropShadow_6_2149" result="shape"/>
</filter>
</defs>
</svg>
