<svg width="40" height="41" viewBox="0 0 40 41" fill="none" xmlns="http://www.w3.org/2000/svg">
<rect y="0.5" width="40" height="40" rx="8" fill="#FE8F66"/>
<mask id="mask0_6_2134" style="mask-type:alpha" maskUnits="userSpaceOnUse" x="8" y="8" width="24" height="25">
<rect x="8" y="8.5" width="24" height="24" fill="#D9D9D9"/>
</mask>
<g mask="url(#mask0_6_2134)">
<path d="M14.0193 27.7308C12.2923 27.2423 10.9439 26.3153 9.97404 24.95C9.0042 23.5847 8.51929 22.1013 8.51929 20.5C8.51929 18.8987 9.0042 17.4153 9.97404 16.05C10.9439 14.6847 12.2923 13.7578 14.0193 13.2693V14.85C12.836 15.25 11.8735 15.9667 11.1318 17C10.3901 18.0333 10.0193 19.2 10.0193 20.5C10.0193 21.8 10.3901 22.9667 11.1318 24C11.8735 25.0333 12.836 25.75 14.0193 26.15V27.7308ZM22.0193 28C19.9373 28 18.1668 27.2705 16.7078 25.8115C15.2488 24.3525 14.5193 22.582 14.5193 20.5C14.5193 18.418 15.2488 16.6475 16.7078 15.1885C18.1668 13.7295 19.9373 13 22.0193 13C23.0231 13 23.9715 13.1859 24.8645 13.5577C25.7574 13.9296 26.548 14.4469 27.2365 15.1098L26.1828 16.1635C25.6391 15.6392 25.0145 15.2308 24.3088 14.9385C23.603 14.6462 22.8398 14.5 22.0193 14.5C20.3526 14.5 18.936 15.0833 17.7693 16.25C16.6026 17.4167 16.0193 18.8333 16.0193 20.5C16.0193 22.1667 16.6026 23.5833 17.7693 24.75C18.936 25.9167 20.3526 26.5 22.0193 26.5C22.8398 26.5 23.603 26.3538 24.3088 26.0615C25.0145 25.7692 25.6391 25.3608 26.1828 24.8365L27.2365 25.8903C26.548 26.5531 25.7574 27.0704 24.8645 27.4423C23.9715 27.8141 23.0231 28 22.0193 28ZM27.827 24.1538L26.773 23.1L28.623 21.25H21.077V19.75H28.623L26.773 17.9L27.827 16.8462L31.4808 20.5L27.827 24.1538Z" fill="white"/>
</g>
</svg>
