<svg width="40" height="39" viewBox="0 0 40 39" fill="none" xmlns="http://www.w3.org/2000/svg">
<rect width="40" height="39" rx="5" fill="white"/>
<path d="M10.2835 29C9.65358 29 9.11547 28.7763 8.66916 28.329C8.22305 27.8814 8 27.3418 8 26.7102V12.2898C8 11.6582 8.22305 11.1186 8.66916 10.671C9.11547 10.2237 9.65358 10 10.2835 10H29.7165C30.3464 10 30.8845 10.2237 31.3308 10.671C31.7769 11.1186 32 11.6582 32 12.2898V26.7102C32 27.3418 31.7769 27.8814 31.3308 28.329C30.8845 28.7763 30.3464 29 29.7165 29H10.2835ZM16.8421 27.1H29.7165C29.83 27.1 29.9232 27.0635 29.996 26.9904C30.0688 26.9174 30.1053 26.824 30.1053 26.7102V12.2898C30.1053 12.176 30.0688 12.0826 29.996 12.0096C29.9232 11.9365 29.83 11.9 29.7165 11.9H16.8421V27.1ZM14.9474 27.1V11.9H10.2835C10.17 11.9 10.0768 11.9365 10.004 12.0096C9.93116 12.0826 9.89474 12.176 9.89474 12.2898V26.7102C9.89474 26.824 9.93116 26.9174 10.004 26.9904C10.0768 27.0635 10.17 27.1 10.2835 27.1H14.9474Z" fill="#00DEA3"/>
</svg>
